<?xml version="1.0" encoding="iso-8859-1"?>
<!-- Uploaded to: SVG Repo, www.svgrepo.com, Generator: SVG Repo Mixer Tools -->
<svg fill="#000000" width="24" height="24" version="1.1" id="Layer_1"
	xmlns="http://www.w3.org/2000/svg" xmlns:xlink="http://www.w3.org/1999/xlink"
	viewBox="0 0 512 512" xml:space="preserve">
<g>
	<g>
		<path d="M405.5,42.72c-1.935-2.417-4.865-3.825-7.961-3.825H296.52l-2.213-29.46C293.908,4.113,289.473,0,284.137,0h-56.273
			c-5.336,0-9.771,4.113-10.171,9.435l-2.213,29.46H114.462c-3.096,0-6.026,1.406-7.961,3.825c-1.936,2.417-2.668,5.583-1.992,8.605
			l13.315,59.425l23.966,106.964l14.04,62.665c1.043,4.658,5.179,7.969,9.952,7.969h41.122v213.453
			c0,5.633,4.566,10.199,10.199,10.199h77.791c5.633,0,10.199-4.566,10.199-10.199V288.348h41.122c4.774,0,8.909-3.312,9.952-7.969
			l14.04-62.665l23.966-106.964l13.315-59.425C408.168,48.303,407.435,45.138,405.5,42.72z M237.326,20.398h37.348l1.389,18.497
			h-40.128L237.326,20.398z M140.515,118.719h53.425v86.566H159.91L140.515,118.719z M284.697,491.602h-57.393V288.348h57.393
			V491.602z M338.051,267.949H173.95l-9.47-42.267h183.041L338.051,267.949z M352.091,205.284H214.339v-86.566h83.323v33.249
			c0,5.633,4.566,10.199,10.199,10.199c5.633,0,10.199-4.566,10.199-10.199v-33.249h53.425L352.091,205.284z M376.058,98.32H135.944
			L127.2,59.294h257.601L376.058,98.32z"/>
	</g>
</g>
<g>
	<g>
		<path d="M307.862,172.367c-5.633,0-10.199,4.566-10.199,10.199v1.896c0,5.633,4.566,10.199,10.199,10.199
			c5.633,0,10.199-4.566,10.199-10.199v-1.896C318.061,176.934,313.495,172.367,307.862,172.367z"/>
	</g>
</g>
</svg>